<?xml version="1.0" standalone="no"?>
<!DOCTYPE svg PUBLIC "-//W3C//DTD SVG 20010904//EN"
 "http://www.w3.org/TR/2001/REC-SVG-20010904/DTD/svg10.dtd">
<svg version="1.0" xmlns="http://www.w3.org/2000/svg"
 width="95.000000pt" height="95.000000pt" viewBox="0 0 95.000000 95.000000"
 preserveAspectRatio="xMidYMid meet">

<g transform="translate(0.000000,95.000000) scale(0.100000,-0.100000)"
fill="#000000" stroke="none">
<path d="M0 828 c0 -144 10 -185 53 -235 48 -55 97 -73 200 -73 l87 0 0 -167
c0 -148 -2 -171 -19 -197 -34 -51 -68 -66 -153 -66 l-78 0 0 70 c0 112 35 167
118 185 30 6 72 52 72 78 0 11 -89 8 -133 -4 -49 -13 -105 -63 -128 -114 -15
-32 -19 -66 -19 -173 l0 -134 138 4 c124 3 141 5 182 28 24 14 58 44 74 68 28
39 31 51 34 142 l4 100 167 0 c145 0 170 -3 194 -19 49 -32 60 -58 65 -148 l5
-83 -60 0 c-33 0 -75 3 -93 6 -43 9 -97 65 -106 108 -7 38 -26 60 -63 71 l-24
7 5 -70 c7 -89 38 -147 100 -182 39 -22 56 -25 187 -28 l144 -4 -5 138 c-4
115 -8 146 -25 179 -45 86 -103 115 -228 115 l-85 0 0 174 c0 161 2 175 21
200 33 42 70 56 154 56 l75 0 -1 -42 c-1 -124 -35 -188 -109 -208 -44 -12 -54
-19 -69 -47 -18 -36 -13 -43 32 -43 94 0 167 39 206 110 22 39 25 59 29 182
l5 138 -135 0 c-125 0 -138 -2 -187 -26 -34 -17 -62 -41 -79 -67 -24 -36 -27
-52 -30 -144 l-4 -103 -166 0 c-148 0 -171 2 -199 20 -47 28 -63 67 -63 155
l0 75 68 -1 c37 -1 77 -4 90 -7 36 -11 81 -60 92 -101 11 -41 32 -65 68 -75
20 -7 22 -4 22 28 0 79 -21 139 -64 182 -53 54 -92 64 -243 64 l-123 0 0 -122z
m515 -353 l0 -40 -40 0 c-36 0 -40 2 -43 28 -6 47 4 59 45 55 37 -3 38 -4 38
-43z"/>
<path d="M429 905 c23 -25 43 -46 45 -47 2 -2 20 18 40 45 l36 47 -81 0 -82 0
42 -45z"/>
<path d="M911 526 c-19 -20 -43 -39 -54 -42 -18 -6 -17 -7 5 -21 12 -9 35 -27
50 -41 15 -14 30 -23 33 -20 3 3 5 40 3 82 l-3 77 -34 -35z"/>
<path d="M0 475 l0 -75 49 36 50 37 -42 38 c-23 21 -45 38 -49 39 -5 0 -8 -34
-8 -75z"/>
<path d="M460 90 c-7 -14 -26 -40 -43 -57 l-31 -33 87 0 88 0 -36 36 c-20 20
-40 46 -44 57 -8 21 -8 21 -21 -3z"/>
</g>
</svg>
