<?xml version="1.0" standalone="no"?>
<!DOCTYPE svg PUBLIC "-//W3C//DTD SVG 20010904//EN"
 "http://www.w3.org/TR/2001/REC-SVG-20010904/DTD/svg10.dtd">
<svg version="1.0" xmlns="http://www.w3.org/2000/svg"
 width="95.000000pt" height="95.000000pt" viewBox="0 0 95.000000 95.000000"
 preserveAspectRatio="xMidYMid meet">

<g transform="translate(0.000000,95.000000) scale(0.100000,-0.100000)"
fill="#000000" stroke="none">
<path d="M0 778 l0 -172 65 64 c62 61 65 67 65 112 l0 48 105 0 c58 0 105 -3
105 -7 0 -4 -75 -83 -167 -175 l-168 -168 173 -173 c94 -95 172 -176 172 -180
0 -4 -49 -7 -110 -7 l-110 0 0 47 c0 44 -4 51 -57 105 -32 32 -61 58 -65 58
-4 0 -8 -74 -8 -165 l0 -165 475 0 475 0 0 167 0 167 -60 -59 c-53 -52 -59
-63 -62 -104 l-3 -46 -112 -3 c-62 -1 -113 1 -113 5 0 4 78 85 172 180 l173
173 -168 168 c-92 92 -167 171 -167 175 0 4 48 6 108 5 l107 -3 3 -46 c3 -41
9 -52 62 -104 l60 -59 0 167 0 167 -475 0 -475 0 0 -172z m638 -465 l-163
-163 -162 162 -163 163 162 162 163 163 162 -162 163 -163 -162 -162z"/>
<path d="M403 629 c-62 -31 -93 -82 -93 -154 0 -66 21 -107 75 -144 43 -29
131 -31 177 -4 119 69 109 247 -16 304 -53 24 -91 24 -143 -2z m135 -106 c54
-60 -11 -148 -88 -122 -34 12 -50 35 -50 74 0 80 84 109 138 48z"/>
</g>
</svg>
