<?xml version="1.0" standalone="no"?>
<!DOCTYPE svg PUBLIC "-//W3C//DTD SVG 20010904//EN"
 "http://www.w3.org/TR/2001/REC-SVG-20010904/DTD/svg10.dtd">
<svg version="1.0" xmlns="http://www.w3.org/2000/svg"
 width="95.000000pt" height="95.000000pt" viewBox="0 0 95.000000 95.000000"
 preserveAspectRatio="xMidYMid meet">

<g transform="translate(0.000000,95.000000) scale(0.100000,-0.100000)"
fill="#000000" stroke="none">
<path d="M0 769 l0 -181 50 -58 49 -57 -49 -56 -50 -55 0 -181 0 -181 187 0
187 0 51 50 51 50 49 -50 49 -50 188 0 188 0 0 187 0 187 -52 53 -52 53 52 53
52 53 0 182 0 182 -188 0 -188 0 -49 -50 -49 -50 -51 50 -51 50 -187 0 -187 0
0 -181z m363 43 l37 -38 -35 -34 -35 -34 -73 72 -72 72 71 0 c68 0 71 -1 107
-38z m340 -34 l-73 -72 -35 34 -35 34 37 38 c36 37 39 38 107 38 l71 0 -72
-72z m-193 -483 l-34 -35 -188 187 -188 188 0 70 0 70 222 -222 222 -222 -34
-36z m349 375 c1 -30 -6 -43 -42 -78 l-44 -43 -32 37 -33 37 69 69 68 69 6
-28 c4 -15 7 -44 8 -63z m-192 -162 l183 -183 0 -75 0 -75 -222 222 -222 222
34 36 c19 19 36 35 39 35 3 0 88 -82 188 -182z m-452 -148 l29 -31 -72 -72
-72 -72 0 70 c0 64 2 71 32 102 18 18 37 33 43 33 6 0 24 -14 40 -30z m147
-147 c15 -15 28 -31 28 -37 0 -5 -14 -25 -32 -43 -30 -31 -36 -33 -102 -33
l-70 0 69 70 c38 39 72 70 74 70 3 0 18 -12 33 -27z m338 -43 l75 -69 -75 -1
c-72 0 -75 1 -112 37 l-38 37 32 33 c18 18 34 33 37 33 4 -1 40 -32 81 -70z"/>
</g>
</svg>
