<?xml version="1.0" standalone="no"?>
<!DOCTYPE svg PUBLIC "-//W3C//DTD SVG 20010904//EN"
 "http://www.w3.org/TR/2001/REC-SVG-20010904/DTD/svg10.dtd">
<svg version="1.0" xmlns="http://www.w3.org/2000/svg"
 width="94.000000pt" height="95.000000pt" viewBox="0 0 94.000000 95.000000"
 preserveAspectRatio="xMidYMid meet">

<g transform="translate(0.000000,95.000000) scale(0.100000,-0.100000)"
fill="#000000" stroke="none">
<path d="M0 771 c0 -201 8 -234 58 -248 35 -10 289 -10 324 0 48 13 58 49 58
215 l0 148 -30 29 -30 29 -190 4 -190 5 0 -182z m320 -41 l0 -100 -99 0 -99 0
-4 93 c-2 50 -3 95 -1 100 3 4 49 7 104 7 l99 0 0 -100z"/>
<path d="M539 921 l-29 -29 0 -162 0 -162 29 -29 29 -29 157 0 157 0 29 29 29
29 0 191 0 191 -186 0 -186 0 -29 -29z m281 -186 l0 -105 -95 0 -95 0 0 105 0
105 95 0 95 0 0 -105z"/>
<path d="M440 500 l-26 -27 29 -26 29 -26 27 26 26 26 -28 29 c-16 15 -29 27
-30 27 -1 -1 -13 -14 -27 -29z"/>
<path d="M29 411 l-29 -29 0 -191 0 -191 186 0 186 0 29 29 29 29 0 165 0 165
-31 26 c-30 26 -33 26 -186 26 l-155 0 -29 -29z m288 -187 c-3 -53 -7 -97 -9
-99 -2 -1 -45 -5 -95 -7 l-93 -4 0 103 0 103 101 0 102 0 -6 -96z"/>
<path d="M548 423 c-40 -25 -48 -60 -48 -214 0 -138 0 -139 28 -168 l27 -29
193 -6 192 -6 0 189 c0 168 -2 191 -18 211 -23 28 -84 38 -237 39 -86 0 -116
-3 -137 -16z m280 -200 l-3 -98 -102 -3 -103 -3 0 101 0 100 105 0 106 0 -3
-97z"/>
</g>
</svg>
