<?xml version="1.0" standalone="no"?>
<!DOCTYPE svg PUBLIC "-//W3C//DTD SVG 20010904//EN"
 "http://www.w3.org/TR/2001/REC-SVG-20010904/DTD/svg10.dtd">
<svg version="1.0" xmlns="http://www.w3.org/2000/svg"
 width="95.000000pt" height="95.000000pt" viewBox="0 0 95.000000 95.000000"
 preserveAspectRatio="xMidYMid meet">

<g transform="translate(0.000000,95.000000) scale(0.100000,-0.100000)"
fill="#000000" stroke="none">
<path d="M0 615 l0 -335 99 0 99 0 68 64 69 64 -41 44 c-22 23 -77 83 -122
132 l-82 89 0 93 c0 94 0 94 25 94 25 0 25 -1 25 -82 l0 -83 137 -143 136
-143 -89 -90 -89 -89 -117 0 -118 0 0 -115 0 -115 335 0 335 0 0 103 0 103
-65 64 -65 64 -32 -30 c-18 -16 -77 -71 -130 -122 l-97 -92 -91 0 c-89 0 -90
0 -90 25 0 24 2 25 78 25 l77 1 140 134 140 133 93 -91 92 -92 0 -112 0 -113
115 0 115 0 0 335 0 335 -98 0 -98 0 -69 -64 -70 -63 25 -31 c14 -17 69 -78
123 -135 l97 -104 0 -92 c0 -90 0 -91 -25 -91 -25 0 -25 1 -25 80 l0 80 -78
83 c-146 155 -182 196 -182 207 0 6 37 49 81 95 l82 85 118 0 119 0 0 115 0
115 -335 0 -335 0 0 -101 0 -101 62 -64 c33 -35 64 -64 67 -64 3 0 64 54 135
120 l129 120 88 0 c88 0 89 0 89 -25 0 -25 -2 -25 -77 -25 l-78 0 -143 -137
-143 -136 -90 89 -89 89 0 117 0 118 -115 0 -115 0 0 -335z m480 180 c-35 -36
-69 -65 -74 -65 -26 0 -46 35 -46 82 l0 48 92 0 92 0 -64 -65z m378 -300 l3
-90 -66 65 c-36 35 -65 70 -65 77 0 23 44 44 85 41 l40 -3 3 -90z m-650 -112
c-16 -17 -33 -23 -65 -23 l-43 0 0 87 0 87 65 -64 65 -64 -22 -23z m382 -245
l0 -48 -92 0 -92 0 69 70 69 70 23 -22 c18 -17 23 -32 23 -70z"/>
</g>
</svg>
