<?xml version="1.0" standalone="no"?>
<!DOCTYPE svg PUBLIC "-//W3C//DTD SVG 20010904//EN"
 "http://www.w3.org/TR/2001/REC-SVG-20010904/DTD/svg10.dtd">
<svg version="1.0" xmlns="http://www.w3.org/2000/svg"
 width="95.000000pt" height="95.000000pt" viewBox="0 0 95.000000 95.000000"
 preserveAspectRatio="xMidYMid meet">

<g transform="translate(0.000000,95.000000) scale(0.100000,-0.100000)"
fill="#000000" stroke="none">
<path d="M0 769 l0 -181 41 -49 c22 -27 45 -49 49 -49 5 0 10 29 12 65 l3 66
73 -73 72 -73 -75 -75 -75 -74 0 67 c0 37 -3 67 -7 67 -4 0 -27 -19 -50 -42
l-43 -42 0 -188 0 -188 182 0 182 0 43 42 c24 23 43 46 43 50 0 4 -30 8 -67 8
l-68 1 72 69 c40 39 76 70 81 70 4 0 39 -31 77 -70 l69 -70 -67 0 c-37 0 -67
-4 -67 -8 0 -5 23 -27 51 -50 l52 -42 183 0 184 0 0 187 0 187 -52 53 -52 53
52 53 52 53 0 182 0 182 -186 0 -185 0 -49 -41 c-27 -23 -47 -46 -44 -50 3 -5
33 -9 67 -9 l61 0 -69 -70 c-38 -38 -74 -70 -80 -70 -6 0 -42 32 -80 70 l-69
70 72 0 c39 0 72 2 72 4 0 3 -21 25 -47 50 l-48 46 -182 0 -183 0 0 -181z
m310 -85 l163 -166 166 166 c116 116 173 166 189 166 40 0 24 -33 -54 -110
-41 -41 -116 -119 -166 -172 l-90 -98 166 -169 c91 -93 166 -177 166 -185 0
-10 -9 -16 -22 -16 -16 0 -73 50 -188 165 l-165 165 -165 -165 c-116 -116
-171 -165 -187 -165 -15 0 -23 6 -23 16 0 9 64 82 143 163 78 80 153 158 166
174 l25 27 -167 168 c-92 92 -167 175 -167 185 0 11 8 17 24 17 17 0 67 -44
186 -166z m530 -211 l0 -147 -70 69 c-38 38 -70 74 -70 79 0 9 129 146 137
146 2 0 3 -66 3 -147z"/>
</g>
</svg>
